# xmcd
#
# Track frame offsets: 
#        150
#        11934
#        24622
#        37452
#        49816
#        65011
#        75028
#        87603
#        100731
#        112804
#        125784
#        141002
#        152690
#        165426
#        176430
#        188193
#        199984
#        212469
#        224091
#        235823
#        249394
#        261732
#        273433
#        285703
#        294776
#
# Disc length: 4090 seconds
#
# Revision: 1
# Processed by: cddbd v1.5.2PL0 Copyright (c) Steve Scherf et al.
# Submitted via: ExactAudioCopyFreeDBPlugin 1.0
#
DISCID=770ff819
DTITLE=Various Artist - Downhome Blues Classics, Texas - CD4
DYEAR=2015
DGENRE=Blues
TTITLE0=Soldier Boy Houston - Hug Me Baby (1950)
TTITLE1=Lil' Son Jackson - Cairo Blues (1949)
TTITLE2=Leroy 'Country' Johnson - Log House On The Hill (1949)
TTITLE3=Manny Nichols - No One To Love Me (1949)
TTITLE4=Ernest Lewis - Shake 'Em On Down (1951-2)
TTITLE5=Thunder Smith - Santa Fe Blues (1949)
TTITLE6=Big Son and Lillian Tillis - Ten Long Years (1953)
TTITLE7=Stick Horse Hammond - Highway 51 (1950)
TTITLE8=Lil' Son Jackson - Freedom Train Blues (1948)
TTITLE9=Frankie Lee Sims - Single Man Blues (1948)
TTITLE10=James Tisdom - Last Affair Blues (1949-50)
TTITLE11=Wright Holmes - Good Road Blues (1947)
TTITLE12=Manny Nichols - Forgive Me (1949)
TTITLE13=Andrew Thomas - I Love My Baby (1949)
TTITLE14=Sunny James - Excuse Me Baby (1948)
TTITLE15=Luther Stoneham - January 11, 1949 Blues (1951)
TTITLE16=David Pete McKinley - Shreveport Blues (1950)
TTITLE17=John Hogg - Worrying Blues (1951)
TTITLE18=Willie Lane - Black Cat Rag (1949)
TTITLE19=Ernest Lewis - West Coast Blues (1952-3)
TTITLE20=Mercy Dee - Evil And Hanky (1949)
TTITLE21=L.C. Williams - Black Woman (1948)
TTITLE22=Soldier Boy Houston - Lawyer Houston Blues (1950)
TTITLE23=The Sugarman - She's Gone With The Wind (1951)
TTITLE24=Stick Horse Hammond - Truck 'Em On Down (1950)
EXTD=YEAR: 2005
EXTT0=
EXTT1=
EXTT2=
EXTT3=
EXTT4=
EXTT5=
EXTT6=
EXTT7=
EXTT8=
EXTT9=
EXTT10=
EXTT11=
EXTT12=
EXTT13=
EXTT14=
EXTT15=
EXTT16=
EXTT17=
EXTT18=
EXTT19=
EXTT20=
EXTT21=
EXTT22=
EXTT23=
EXTT24=
PLAYORDER=
